<svg width="160" height="160" viewBox="0 0 160 160" fill="none" xmlns="http://www.w3.org/2000/svg">
    <rect width="160" height="160" rx="30" fill="#F2F2F2" />
    <path d="M96.6672 72.8935C97.4965 72.8154 98.0521 71.976 97.6963 71.2229C94.101 63.6124 86.2532 58.25 77.5003 58.25C65.2314 58.25 56.2503 68.3909 56.2503 80.5C56.2503 90.2696 62.6803 97.9544 71.4141 100.68C72.1937 100.923 72.9418 100.279 72.9289 99.4621C72.9201 98.9093 72.5548 98.4244 72.028 98.2565C64.3066 95.7959 58.7503 88.9985 58.7503 80.5C58.7503 69.6092 66.7692 60.75 77.5003 60.75C85.2142 60.75 92.1524 65.472 95.3723 72.1596C95.6078 72.6487 96.1267 72.9443 96.6672 72.8935Z" fill="#666666" />
    <path fill-rule="evenodd" clip-rule="evenodd" d="M116.135 79.1035C115.883 78.8865 115.752 78.5586 115.813 78.2314C116.141 76.4908 116.896 74.8197 118.08 73.3996C118.11 73.3636 118.141 73.3284 118.173 73.2942L124.923 66.0617C124.979 65.9478 125.026 65.8462 125.069 65.748C125.122 65.6275 125.156 65.5378 125.177 65.4717L114.954 47.4588L105.045 49.4406C99.6186 50.7617 94.5157 47.3278 92.6595 42.3778C92.644 42.3365 92.6296 42.2949 92.6163 42.2528L89.7331 33.1227C89.466 32.7695 89.2722 32.618 89.1753 32.5575C89.0876 32.5027 89.0497 32.5 89.0003 32.5H67.5003C67.4108 32.5 67.3422 32.5233 67.3032 32.5456L67.2953 32.5503L64.3949 42.2184C64.3677 42.3089 64.3354 42.3979 64.2982 42.4848C62.4047 46.9029 57.3161 50.2454 51.9558 48.9406L42.3593 47.0213C42.3367 47.0287 42.3178 47.0372 42.3031 47.0456C42.2853 47.0558 42.274 47.0654 42.2662 47.0735C42.2591 47.0809 42.2485 47.0937 42.2364 47.118C42.2124 47.1661 42.1868 47.2133 42.1597 47.2597L31.7109 65.172C31.7267 65.1897 31.7456 65.2098 31.7681 65.2322C31.7884 65.2526 31.8083 65.2732 31.8279 65.2942L38.8279 72.7942C38.8599 72.8284 38.8909 72.8636 38.9209 72.8995C42.1934 76.8267 42.1934 82.6734 38.9209 86.6005C38.908 86.6159 38.895 86.6312 38.8817 86.6463L32.0952 94.4024C32.0321 94.5311 31.9788 94.6436 31.9313 94.7521C31.8799 94.8697 31.8465 94.9579 31.8249 95.0235L42.0439 112.542L51.9558 110.559C57.3821 109.238 62.4849 112.672 64.3411 117.622C64.3608 117.675 64.3787 117.728 64.3949 117.782L67.2953 127.45L67.3032 127.454C67.3422 127.477 67.4108 127.5 67.5003 127.5H88.5003C88.5898 127.5 88.6584 127.477 88.6974 127.454C88.7027 127.451 88.7074 127.448 88.7116 127.446L89.5585 124.764C89.7642 124.112 90.4719 123.769 91.1222 123.978C91.7678 124.186 92.1466 124.87 91.9424 125.517L91.0003 128.5C90.5003 129.5 89.5003 130 88.5003 130H67.5003C66.5003 130 65.5003 129.5 65.0003 128.5L62.0003 118.5C60.5003 114.5 56.5003 112 52.5003 113L42.5003 115C41.5003 115.5 40.5003 115 40.0003 114L29.5003 96C29.0003 95 29.5003 94 30.0003 93L37.0003 85C39.5003 82 39.5003 77.5 37.0003 74.5L30.0003 67C29.0003 66 29.0003 65 29.5003 64L40.0003 46C40.5003 45 41.5003 44.5 42.5003 44.5L52.5003 46.5C56.5003 47.5 60.5003 45 62.0003 41.5L65.0003 31.5C65.5003 30.5 66.5003 30 67.5003 30H89.0003C90.0003 30 91.0003 30.5 92.0003 32L95.0003 41.5C96.5003 45.5 100.5 48 104.5 47L114.5 45C115.5 44.5 116.5 45 117 46L127.5 64.5C128 65.5 127.5 66.5 127 67.5L120 75C119.197 75.9645 118.651 77.084 118.364 78.2588C118.147 79.1475 116.829 79.6996 116.135 79.1035Z" fill="#666666" />
    <path fill-rule="evenodd" clip-rule="evenodd" d="M119.602 89.8972C121.592 94.1648 122.241 98.7407 121.256 103.34L133.765 115.849C134.254 116.337 134.254 117.129 133.765 117.617C133.277 118.105 132.486 118.105 131.998 117.617L118.998 104.617C118.688 104.307 118.563 103.856 118.669 103.43C119.727 99.2001 119.206 94.9598 117.333 90.9454L117.324 90.9273C112.815 80.8478 101.201 76.3145 91.1127 80.7087C91.0828 80.7466 91.0505 80.7829 91.016 80.8174C90.9597 80.8737 90.9572 80.9129 90.9572 80.9251C90.9572 80.9373 90.9597 80.9765 91.016 81.0329L105.466 95.4829C105.7 95.7173 105.832 96.0353 105.832 96.3668C105.832 96.6983 105.7 97.0163 105.466 97.2507L97.5327 105.184C97.0513 105.665 96.2732 105.673 95.7824 105.201L81.0491 91.0345L81.0316 91.0174L81.02 91.0057C80.9808 91.0328 80.8898 91.1093 80.7501 91.3048C79.1815 95.0303 78.6826 99.5087 79.7233 103.411C79.7275 103.427 79.7314 103.443 79.735 103.459C82.1355 114.128 92.7994 121.049 103.719 118.386C104.143 118.282 104.591 118.408 104.899 118.716L117.899 131.716C118.387 132.204 118.387 132.995 117.899 133.483C117.411 133.972 116.619 133.972 116.131 133.483L103.62 120.972C91.5597 123.522 79.9605 115.791 77.3014 104.032C76.0944 99.4798 76.7091 94.3862 78.4999 90.2077C78.53 90.1376 78.5664 90.0703 78.6088 90.0068C78.9486 89.497 79.3945 88.9888 80.0266 88.7079C80.7042 88.4067 81.3934 88.4529 82.0275 88.6643C82.2115 88.7256 82.3788 88.829 82.516 88.9663L82.7907 89.2409L96.6317 102.55L102.814 96.3668L89.2483 82.8007C88.2808 81.8332 88.2007 80.3721 89.008 79.3229C89.0205 79.2934 89.0343 79.2633 89.0495 79.2328C89.1414 79.0491 89.2988 78.8273 89.5583 78.6543C89.7183 78.5477 89.89 78.4777 90.0642 78.4386C101.427 73.4572 114.527 78.565 119.602 89.8972Z" fill="#666666" />
</svg>
    